<svg width="1200" height="900" viewBox="0 0 1200 900" fill="none" xmlns="http://www.w3.org/2000/svg">
  <rect width="1200" height="900" rx="56" fill="#0C1628"/>
  <rect x="56" y="56" width="1088" height="788" rx="44" fill="url(#paint0_linear)"/>
  <path d="M0 640C171.882 547.617 329.723 501.426 473.522 501.426C689.921 501.426 778.195 708.698 974.154 708.698C1047.39 708.698 1122.67 683.13 1200 632V900H0V640Z" fill="url(#paint1_linear)" fill-opacity="0.78"/>
  <circle cx="770" cy="326" r="180" fill="url(#paint2_radial)"/>
  <rect x="706" y="142" width="128" height="28" rx="14" fill="white" fill-opacity="0.16"/>
  <rect x="670" y="192" width="200" height="18" rx="9" fill="white" fill-opacity="0.12"/>
  <rect x="670" y="226" width="164" height="18" rx="9" fill="white" fill-opacity="0.08"/>
  <path d="M370 224C370 165.458 417.458 118 476 118H614C672.542 118 720 165.458 720 224V640C720 698.542 672.542 746 614 746H476C417.458 746 370 698.542 370 640V224Z" fill="#F8FBF4"/>
  <rect x="396" y="168" width="298" height="524" rx="34" fill="#08111F"/>
  <rect x="426" y="206" width="238" height="70" rx="22" fill="#F5F7F2"/>
  <rect x="426" y="300" width="114" height="132" rx="26" fill="#DBFDF1"/>
  <rect x="550" y="300" width="114" height="132" rx="26" fill="#E6EEFF"/>
  <rect x="426" y="456" width="238" height="28" rx="14" fill="white" fill-opacity="0.12"/>
  <rect x="426" y="504" width="202" height="18" rx="9" fill="white" fill-opacity="0.08"/>
  <rect x="426" y="544" width="238" height="18" rx="9" fill="white" fill-opacity="0.08"/>
  <rect x="426" y="584" width="156" height="18" rx="9" fill="white" fill-opacity="0.08"/>
  <circle cx="474" cy="578" r="9" fill="#D6A84F"/>
  <circle cx="474" cy="538" r="9" fill="#F1D27A"/>
  <circle cx="474" cy="498" r="9" fill="#7E4D22"/>
  <circle cx="964" cy="590" r="126" fill="#F7F8F2"/>
  <path d="M853 632C853 567.383 905.383 515 970 515C1034.62 515 1087 567.383 1087 632V668H853V632Z" fill="#091223"/>
  <circle cx="970" cy="480" r="88" fill="#D7E8E1"/>
  <rect x="884" y="648" width="173" height="142" rx="68" fill="#08111F"/>
  <rect x="916" y="558" width="108" height="220" rx="46" fill="#D6A84F" fill-opacity="0.18" transform="rotate(-8 916 558)"/>
  <defs>
    <linearGradient id="paint0_linear" x1="146" y1="94" x2="1026" y2="820" gradientUnits="userSpaceOnUse">
      <stop stop-color="#101C32"/>
      <stop offset="0.43" stop-color="#10243B"/>
      <stop offset="1" stop-color="#1E3855"/>
    </linearGradient>
    <linearGradient id="paint1_linear" x1="600" y1="512" x2="600" y2="900" gradientUnits="userSpaceOnUse">
      <stop stop-color="#D6A84F" stop-opacity="0.3"/>
      <stop offset="1" stop-color="#7E4D22" stop-opacity="0.04"/>
    </linearGradient>
    <radialGradient id="paint2_radial" cx="0" cy="0" r="1" gradientUnits="userSpaceOnUse" gradientTransform="translate(728 248) rotate(46.3415) scale(292.594)">
      <stop stop-color="#D6A84F" stop-opacity="0.46"/>
      <stop offset="0.54" stop-color="#F1D27A" stop-opacity="0.18"/>
      <stop offset="1" stop-color="#7E4D22" stop-opacity="0"/>
    </radialGradient>
  </defs>
</svg>
