<svg width="1400" height="980" viewBox="0 0 1400 980" fill="none" xmlns="http://www.w3.org/2000/svg">
  <rect width="1400" height="980" rx="48" fill="#091223"/>
  <circle cx="296" cy="252" r="120" fill="#14F195" fill-opacity="0.16"/>
  <circle cx="1106" cy="708" r="148" fill="#7C6BFF" fill-opacity="0.12"/>
  <path d="M270 270C425 270 388 620 700 620C1012 620 954 338 1142 338" stroke="url(#paint0_linear)" stroke-width="18" stroke-linecap="round"/>
  <path d="M270 270C403 270 425 530 640 530C855 530 912 232 1142 232" stroke="url(#paint1_linear)" stroke-width="8" stroke-linecap="round" stroke-dasharray="1 22"/>
  <rect x="146" y="176" width="228" height="184" rx="28" fill="#F7F8F2"/>
  <rect x="174" y="206" width="96" height="22" rx="11" fill="#14F195" fill-opacity="0.3"/>
  <rect x="174" y="254" width="156" height="18" rx="9" fill="#C1CDC8"/>
  <rect x="174" y="290" width="126" height="18" rx="9" fill="#D9E3DF"/>
  <rect x="592" y="452" width="244" height="184" rx="28" fill="#F7F8F2"/>
  <rect x="620" y="482" width="96" height="22" rx="11" fill="#00C2FF" fill-opacity="0.3"/>
  <rect x="620" y="530" width="174" height="18" rx="9" fill="#C1D5E4"/>
  <rect x="620" y="566" width="146" height="18" rx="9" fill="#D8E8F1"/>
  <rect x="1012" y="136" width="240" height="184" rx="28" fill="#F7F8F2"/>
  <rect x="1040" y="166" width="102" height="22" rx="11" fill="#7C6BFF" fill-opacity="0.24"/>
  <rect x="1040" y="214" width="164" height="18" rx="9" fill="#D4D0E7"/>
  <rect x="1040" y="250" width="118" height="18" rx="9" fill="#E1DDF0"/>
  <rect x="960" y="620" width="270" height="214" rx="32" fill="#F7F8F2"/>
  <rect x="998" y="662" width="132" height="22" rx="11" fill="#14F195" fill-opacity="0.24"/>
  <rect x="998" y="712" width="176" height="18" rx="9" fill="#D7E6DF"/>
  <rect x="998" y="748" width="138" height="18" rx="9" fill="#E3ECE8"/>
  <circle cx="270" cy="270" r="28" fill="#14F195"/>
  <circle cx="700" cy="620" r="28" fill="#00C2FF"/>
  <circle cx="1142" cy="338" r="28" fill="#7C6BFF"/>
  <circle cx="1142" cy="232" r="20" fill="#F5F7F2"/>
  <defs>
    <linearGradient id="paint0_linear" x1="250" y1="270" x2="1142" y2="338" gradientUnits="userSpaceOnUse">
      <stop stop-color="#14F195"/>
      <stop offset="0.55" stop-color="#00C2FF"/>
      <stop offset="1" stop-color="#7C6BFF"/>
    </linearGradient>
    <linearGradient id="paint1_linear" x1="270" y1="270" x2="1142" y2="232" gradientUnits="userSpaceOnUse">
      <stop stop-color="#F5F7F2"/>
      <stop offset="1" stop-color="#F5F7F2" stop-opacity="0.1"/>
    </linearGradient>
  </defs>
</svg>
