<svg width="1200" height="960" viewBox="0 0 1200 960" fill="none" xmlns="http://www.w3.org/2000/svg">
  <rect width="1200" height="960" rx="56" fill="#0C1628"/>
  <rect x="82" y="78" width="1036" height="804" rx="44" fill="url(#paint0_linear)"/>
  <circle cx="860" cy="220" r="170" fill="#14F195" fill-opacity="0.12"/>
  <rect x="330" y="144" width="540" height="672" rx="56" fill="#F5F7F2"/>
  <rect x="372" y="206" width="456" height="548" rx="38" fill="#08111F"/>
  <path d="M600 330L720 388V490C720 580.92 667.6 655.28 600 692C532.4 655.28 480 580.92 480 490V388L600 330Z" fill="#F5F7F2"/>
  <path d="M600 384L660 413V478C660 530.759 630.043 578.791 600 598C569.957 578.791 540 530.759 540 478V413L600 384Z" fill="#14F195"/>
  <path d="M570 476L592 498L636 448" stroke="#08111F" stroke-width="22" stroke-linecap="round" stroke-linejoin="round"/>
  <rect x="456" y="626" width="288" height="20" rx="10" fill="white" fill-opacity="0.12"/>
  <rect x="456" y="664" width="212" height="18" rx="9" fill="white" fill-opacity="0.08"/>
  <rect x="146" y="470" width="160" height="244" rx="32" fill="#F5F7F2" fill-opacity="0.08"/>
  <circle cx="226" cy="528" r="34" fill="#14F195" fill-opacity="0.18"/>
  <rect x="186" y="588" width="80" height="14" rx="7" fill="white" fill-opacity="0.16"/>
  <rect x="174" y="620" width="104" height="14" rx="7" fill="white" fill-opacity="0.12"/>
  <rect x="174" y="652" width="104" height="14" rx="7" fill="white" fill-opacity="0.12"/>
  <defs>
    <linearGradient id="paint0_linear" x1="144" y1="120" x2="1058" y2="840" gradientUnits="userSpaceOnUse">
      <stop stop-color="#10203A"/>
      <stop offset="0.44" stop-color="#0C1628"/>
      <stop offset="1" stop-color="#122640"/>
    </linearGradient>
  </defs>
</svg>
