<svg width="1200" height="900" viewBox="0 0 1200 900" fill="none" xmlns="http://www.w3.org/2000/svg">
  <rect width="1200" height="900" rx="56" fill="#E8EFE8"/>
  <rect x="48" y="48" width="1104" height="804" rx="40" fill="#F8FBF6"/>
  <rect x="88" y="88" width="1024" height="280" rx="36" fill="url(#paint0_linear)"/>
  <rect x="132" y="132" width="420" height="26" rx="13" fill="white" fill-opacity="0.28"/>
  <rect x="132" y="178" width="320" height="18" rx="9" fill="white" fill-opacity="0.2"/>
  <rect x="132" y="210" width="260" height="18" rx="9" fill="white" fill-opacity="0.12"/>
  <rect x="88" y="408" width="1024" height="404" rx="36" fill="#08111F"/>
  <rect x="132" y="460" width="314" height="272" rx="28" fill="#F5F7F2"/>
  <rect x="472" y="460" width="596" height="272" rx="28" fill="#101C32"/>
  <rect x="500" y="490" width="126" height="20" rx="10" fill="#14F195" fill-opacity="0.42"/>
  <rect x="500" y="534" width="338" height="18" rx="9" fill="white" fill-opacity="0.16"/>
  <rect x="500" y="570" width="286" height="18" rx="9" fill="white" fill-opacity="0.1"/>
  <path d="M580 626C580 580.713 616.713 544 662 544H748C793.287 544 830 580.713 830 626V686H580V626Z" fill="#16263C"/>
  <circle cx="708" cy="516" r="64" fill="#D6E7DF"/>
  <path d="M202 620C202 563.667 247.667 518 304 518C360.333 518 406 563.667 406 620V670H202V620Z" fill="#0C1628"/>
  <circle cx="304" cy="482" r="78" fill="#C8DFD4"/>
  <path d="M272 620C272 575.817 307.817 540 352 540C396.183 540 432 575.817 432 620V678H272V620Z" fill="#14F195" fill-opacity="0.18"/>
  <circle cx="352" cy="510" r="62" fill="#E9F0EE"/>
  <rect x="162" y="662" width="200" height="30" rx="15" fill="#D8FCEF"/>
  <rect x="162" y="708" width="150" height="18" rx="9" fill="#DDE9E4"/>
  <defs>
    <linearGradient id="paint0_linear" x1="88" y1="88" x2="1112" y2="368" gradientUnits="userSpaceOnUse">
      <stop stop-color="#0C1628"/>
      <stop offset="0.54" stop-color="#113256"/>
      <stop offset="1" stop-color="#19B2D8"/>
    </linearGradient>
  </defs>
</svg>
